<?xml version="1.0" encoding="UTF-8" standalone="no"?>
<!-- Created with Inkscape (http://www.inkscape.org/) -->

<svg
   width="210mm"
   height="297mm"
   viewBox="0 0 210 297"
   version="1.1"
   id="svg5"
   inkscape:version="1.2.2 (b0a8486, 2022-12-01)"
   sodipodi:docname="shp_logo.svg"
   xmlns:inkscape="http://www.inkscape.org/namespaces/inkscape"
   xmlns:sodipodi="http://sodipodi.sourceforge.net/DTD/sodipodi-0.dtd"
   xmlns="http://www.w3.org/2000/svg"
   xmlns:svg="http://www.w3.org/2000/svg">
  <sodipodi:namedview
     id="namedview7"
     pagecolor="#ffffff"
     bordercolor="#000000"
     borderopacity="0.25"
     inkscape:showpageshadow="2"
     inkscape:pageopacity="0.0"
     inkscape:pagecheckerboard="0"
     inkscape:deskcolor="#d1d1d1"
     inkscape:document-units="mm"
     showgrid="false"
     inkscape:zoom="0.76541785"
     inkscape:cx="465.10543"
     inkscape:cy="463.79896"
     inkscape:window-width="1467"
     inkscape:window-height="932"
     inkscape:window-x="173"
     inkscape:window-y="54"
     inkscape:window-maximized="0"
     inkscape:current-layer="layer1">
    <inkscape:grid
       type="xygrid"
       id="grid9" />
  </sodipodi:namedview>
  <defs
     id="defs2">
    <rect
       x="200"
       y="200"
       width="700.00001"
       height="360.00001"
       id="rect3558" />
    <rect
       x="220"
       y="260"
       width="640.00001"
       height="560.00001"
       id="rect3446" />
    <rect
       x="200"
       y="200"
       width="700"
       height="360"
       id="rect3558-1" />
  </defs>
  <g
     inkscape:label="Layer 1"
     inkscape:groupmode="layer"
     id="layer1">
    <rect
       style="fill:none;stroke-width:0.264583;stroke:#000000;stroke-opacity:0"
       id="rect115"
       width="137.58333"
       height="137.58333"
       x="47.625"
       y="31.75"
       inkscape:export-filename="rect115.png"
       inkscape:export-xdpi="14.740883"
       inkscape:export-ydpi="14.740883" />
    <path
       style="fill:#ff0000;fill-opacity:0.19689119;stroke:#ff0000;stroke-width:7.265;stroke-linejoin:round;stroke-dasharray:none;stroke-opacity:1"
       d="M 58.208333,42.333333 H 179.91666 l -15.87499,47.625 15.875,10.583337 L 174.625,158.75 127,164.04167 116.41667,153.45833 68.791667,164.04167 58.208333,148.16667 63.5,121.70833 52.916667,89.958333 68.791667,63.5 Z"
       id="path1183" />
    <text
       xml:space="preserve"
       transform="scale(0.26458333)"
       id="text3444"
       style="font-size:186.667px;white-space:pre;shape-inside:url(#rect3446);display:inline;fill:#ff0000;fill-opacity:0.196891;stroke:#ff0000;stroke-width:11.3386;stroke-linejoin:round;stroke-dasharray:none;stroke-opacity:1" />
    <path
       id="path4384"
       style="font-weight:bold;font-size:253.333px;-inkscape-font-specification:'sans-serif Bold';white-space:pre;fill:#ffffff;fill-opacity:0.891192;stroke-width:2.81454;stroke-linejoin:round"
       d="m 69.035156,68.650391 c -6.68108,0.145071 -13.551408,2.647258 -18.019292,7.765634 -5.656571,6.575448 -5.764171,17.184611 -0.293157,23.899215 3.34782,3.94732 8.354806,5.93524 13.256065,7.15379 2.506684,0.67109 5.207774,1.08347 7.56029,2.04464 -1.772841,0.72651 -3.764719,0.62855 -5.637658,0.46155 -4.353767,-0.50023 -8.346328,-2.67699 -11.626009,-5.50758 -2.512543,-1.71998 -6.637822,-0.66928 -7.578129,2.35658 -0.401508,1.8347 -0.146134,3.72726 -0.238282,5.58828 0.04386,2.75402 -0.1514,5.53579 0.220704,8.26914 0.545898,1.96549 2.482029,3.0388 4.27968,3.65963 7.861566,3.2983 16.81025,4.27794 25.110944,2.15482 5.616839,-1.45745 10.788352,-5.11639 13.437884,-10.35732 0.494938,-0.96936 0.904346,-1.98259 1.216413,-3.02549 0.02467,3.37329 0.01481,6.7502 0.08398,10.1211 0.547477,2.52698 3.408887,3.87325 5.816406,3.48437 3.54082,-0.0858 7.10515,0.20875 10.62695,-0.25 2.34999,-0.81658 3.31831,-3.58704 2.98438,-5.88516 0,-5.11185 0,-10.22369 0,-15.33554 2.62174,0 5.24349,0 7.86523,0 0.0419,6.05975 -0.11954,12.128 0.14649,18.18164 0.67046,2.45771 3.49861,3.66969 5.86914,3.28906 3.50904,-0.0853 7.04135,0.20799 10.53125,-0.25 2.35016,-0.81656 3.31796,-3.58705 2.98441,-5.88516 -0.0152,-15.85761 0.0694,-31.718134 -0.0938,-47.573824 -0.50535,-2.472163 -3.2433,-3.788045 -5.59501,-3.535408 -3.61828,0.176176 -7.26388,-0.19574 -10.86397,0.291267 -2.3454,0.825328 -3.31918,3.597442 -2.97852,5.896484 0,3.897136 0,7.794271 0,11.691407 -2.62174,0 -5.24349,0 -7.86523,0 -0.0241,-4.82498 0.0808,-9.656121 -0.125,-14.476563 -0.5889,-2.440934 -3.33977,-3.678242 -5.67809,-3.391842 -3.53695,0.142824 -7.094072,-0.173681 -10.616834,0.239498 -2.390679,0.778616 -3.525477,3.566464 -3.109391,5.914453 0.002,8.4862 -0.0085,16.972399 -0.0078,25.458598 -0.967758,-3.094808 -2.865364,-5.890666 -5.476589,-7.829424 -4.233947,-3.266887 -9.557731,-4.468881 -14.655063,-5.672323 -1.148901,-0.283794 -2.327033,-0.596979 -3.467958,-1.006069 2.281601,-0.747872 4.70878,-0.570201 7.058566,-0.02468 3.179132,0.76695 5.928454,2.641109 8.510746,4.566672 2.761517,1.491881 6.86958,-0.315673 7.19436,-3.555668 0.0069,-4.086781 0.152231,-8.182524 -0.107422,-12.263672 -0.535798,-2.312119 -2.883168,-3.502066 -4.98517,-4.083356 -5.03664,-1.784766 -10.388786,-2.700181 -15.735533,-2.578753 z m 89.035154,0.873047 c -4.80842,0.03593 -9.62506,-0.11706 -14.42773,0.128906 -2.49268,0.449486 -3.88303,3.218827 -3.57903,5.583792 0.10792,4.662019 0.01,9.327104 0.0421,13.990426 0.0125,11.349758 -0.0538,22.704138 0.11309,34.050778 0.5747,2.50435 3.41777,3.82495 5.8125,3.44141 3.54016,-0.0859 7.10385,0.20879 10.625,-0.25 2.35222,-0.81738 3.3192,-3.59145 2.98437,-5.89102 0,-3.2414 10e-6,-6.48281 0,-9.72421 4.62992,0.077 9.50822,-0.19601 13.6087,-2.57906 6.02722,-3.23999 10.10521,-9.712644 10.56573,-16.525004 0.62295,-5.549182 -0.56732,-11.583273 -4.36235,-15.841118 -3.55834,-4.053507 -8.97326,-6.06094 -14.27581,-6.27927 -2.36464,-0.167491 -4.73787,-0.119345 -7.10658,-0.10563 z m 2.3125,17.597656 c 1.19413,0.05893 2.46263,0.0078 3.30664,0.992187 0.71429,1.272758 0.4476,2.934553 -0.22851,4.16211 -1.00424,1.001674 -2.56292,0.738256 -3.84961,0.919921 0.0686,-2.01877 0.01,-4.049079 0.0293,-6.072265 0.2474,-6.29e-4 0.4948,-0.0014 0.74219,-0.002 z" />
    <text
       xml:space="preserve"
       transform="matrix(0.23288066,0,0,0.26458333,1.1460654,7.9375004)"
       id="text3556"
       style="font-size:253.333px;white-space:pre;shape-inside:url(#rect3558);display:inline;fill:#0000ff;fill-opacity:1;stroke:none;stroke-width:11.3386;stroke-linejoin:round;stroke-dasharray:none;stroke-opacity:1"><tspan
         x="200"
         y="431.12337"
         id="tspan6634"><tspan
           style="font-weight:bold;-inkscape-font-specification:'sans-serif Bold'"
           id="tspan6632">SHP</tspan></tspan></text>
  </g>
</svg>
